<?xml version="1.0" encoding="UTF-8" standalone="no"?>
<!DOCTYPE svg PUBLIC "-//W3C//DTD SVG 1.1//EN" "http://www.w3.org/Graphics/SVG/1.1/DTD/svg11.dtd">
<svg xmlns="http://www.w3.org/2000/svg" version="1.1" viewBox="0.00 0.00 1024.00 1024.00">
<path fill="#858782" d="
  M 543.28 385.82
  L 615.27 385.36
  L 687.25 385.41
  L 689.08 385.30
  L 690.75 384.97
  L 692.27 384.42
  L 693.62 383.63
  L 693.62 383.63
  L 695.05 382.39
  L 696.25 380.82
  L 697.38 378.47
  L 697.85 376.07
  L 697.85 376.07
  L 697.81 374.55
  L 697.50 373.00
  L 696.93 371.44
  L 696.10 369.87
  L 694.38 367.32
  L 692.45 365.02
  L 688.66 360.95
  L 672.78 341.92
  L 668.26 336.75
  L 663.59 331.29
  L 657.14 323.51
  L 630.45 292.08
  L 617.83 276.93
  L 612.26 270.55
  L 609.05 266.84
  L 604.85 261.60
  L 602.36 258.89
  L 600.61 257.05
  L 599.07 255.55
  L 597.33 254.45
  L 597.14 254.36
  L 595.55 253.77
  L 593.94 253.45
  L 593.94 253.45
  L 592.46 253.40
  L 590.95 253.57
  L 589.42 253.96
  L 587.86 254.58
  L 584.76 256.49
  L 579.89 260.13
  L 573.63 264.23
  L 567.35 268.31
  L 535.09 290.64
  L 537.19 288.63
  L 540.45 286.19
  L 569.17 266.43
  L 586.36 254.87
  L 588.32 253.77
  L 590.24 253.03
  L 592.12 252.66
  L 593.96 252.67
  L 593.96 252.67
  L 595.65 253.00
  L 597.31 253.66
  L 598.63 254.53
  L 600.25 255.95
  L 604.39 260.47
  L 628.05 288.44
  L 646.86 310.64
  L 694.50 366.64
  L 696.93 369.95
  L 697.64 371.40
  L 698.01 372.70
  L 698.26 374.91
  L 698.29 376.85
  L 698.07 378.52
  L 697.63 379.93
  L 696.41 382.05
  L 694.81 383.69
  L 694.81 383.69
  L 694.81 383.69
  L 693.50 384.53
  L 692.01 385.15
  L 688.94 385.77
  L 684.79 385.98
  L 614.04 386.02
  L 543.28 385.82
  Z"
/>
<path fill="#000000" d="
  M 543.28 385.82
  L 515.35 385.89
  L 479.94 385.88
  L 428.16 385.92
  L 425.90 384.91
  L 424.05 383.70
  L 422.62 382.30
  L 421.60 380.70
  L 421.60 380.70
  L 420.92 378.50
  L 420.76 375.75
  L 421.20 373.17
  L 421.20 373.17
  L 421.72 371.77
  L 422.43 370.43
  L 423.28 369.31
  L 424.52 368.05
  L 428.15 365.16
  L 448.72 350.42
  L 465.10 338.94
  L 532.86 292.35
  L 533.76 291.52
  L 534.15 290.96
  L 534.70 290.46
  L 535.02 290.37
  L 535.02 290.37
  L 535.09 290.64
  L 567.35 268.31
  L 573.63 264.23
  L 579.89 260.13
  L 584.76 256.49
  L 587.86 254.58
  L 589.42 253.96
  L 590.95 253.57
  L 592.46 253.40
  L 593.94 253.45
  L 593.94 253.45
  L 595.55 253.77
  L 597.14 254.36
  L 597.33 254.45
  L 599.07 255.55
  L 600.61 257.05
  L 602.36 258.89
  L 604.85 261.60
  L 609.05 266.84
  L 612.26 270.55
  L 617.83 276.93
  L 630.45 292.08
  L 657.14 323.51
  L 663.59 331.29
  L 668.26 336.75
  L 672.78 341.92
  L 688.66 360.95
  L 692.45 365.02
  L 694.38 367.32
  L 696.10 369.87
  L 696.93 371.44
  L 697.50 373.00
  L 697.81 374.55
  L 697.85 376.07
  L 697.85 376.07
  L 697.38 378.47
  L 696.25 380.82
  L 695.05 382.39
  L 693.62 383.63
  L 693.62 383.63
  L 692.27 384.42
  L 690.75 384.97
  L 689.08 385.30
  L 687.25 385.41
  L 615.27 385.36
  L 543.28 385.82
  Z
  M 573.86 286.91
  L 569.01 290.29
  L 568.25 290.63
  L 567.42 291.22
  L 566.70 292.00
  L 566.20 292.73
  L 565.90 292.43
  L 565.46 292.53
  L 548.70 303.67
  L 548.29 304.13
  L 548.51 304.69
  L 548.98 305.10
  L 618.20 341.72
  L 642.45 354.33
  L 667.31 366.81
  L 668.21 367.19
  L 668.62 367.18
  L 668.62 367.18
  L 668.53 366.78
  L 667.95 365.99
  L 595.15 279.74
  L 593.79 278.50
  L 592.62 276.99
  L 591.98 275.69
  L 591.14 275.09
  L 591.14 275.09
  L 590.39 275.09
  L 589.52 275.49
  L 583.20 279.92
  L 573.86 286.91
  Z
  M 530.99 316.88
  L 530.63 316.90
  L 458.21 366.36
  L 458.07 366.77
  L 458.40 367.00
  L 624.36 367.00
  L 624.61 366.89
  L 624.70 366.59
  L 624.52 366.34
  L 530.99 316.88
  Z"
/>
<path fill="#000000" d="
  M 437.77 254.22
  L 440.09 255.53
  L 441.94 257.00
  L 443.31 258.64
  L 444.21 260.45
  L 444.21 260.45
  L 444.21 260.45
  L 444.64 262.44
  L 444.59 264.60
  L 444.06 266.94
  L 443.05 269.44
  L 434.59 277.64
  L 366.53 350.67
  L 362.51 355.26
  L 359.63 357.89
  L 356.92 360.68
  L 352.99 365.39
  L 349.55 369.06
  L 347.45 371.02
  L 345.35 372.44
  L 343.23 373.31
  L 341.09 373.63
  L 341.09 373.63
  L 339.28 373.47
  L 337.46 372.92
  L 335.91 372.13
  L 334.58 371.12
  L 333.49 369.94
  L 332.64 368.60
  L 332.04 367.08
  L 331.73 365.45
  L 331.71 363.75
  L 332.01 362.00
  L 332.42 360.93
  L 333.15 359.70
  L 335.54 356.75
  L 339.68 351.83
  L 341.07 350.00
  L 342.71 348.51
  L 347.39 344.02
  L 351.66 338.84
  L 355.49 334.73
  L 359.80 330.68
  L 363.65 326.27
  L 363.65 326.27
  L 364.75 324.84
  L 378.20 310.37
  L 381.94 306.18
  L 386.24 302.12
  L 390.30 297.86
  L 390.30 297.86
  L 394.25 293.25
  L 395.69 291.40
  L 396.77 290.50
  L 404.43 282.08
  L 404.48 281.90
  L 404.85 281.32
  L 405.51 280.85
  L 409.27 277.36
  L 412.85 273.70
  L 418.75 266.78
  L 420.06 265.00
  L 421.53 263.92
  L 432.07 254.13
  L 435.08 253.79
  L 436.47 253.91
  L 437.77 254.22
  Z"
/>
<path fill="#858782" d="
  M 432.07 254.13
  L 421.53 263.92
  L 423.82 260.63
  L 426.34 257.90
  L 429.09 255.74
  L 432.07 254.13
  Z"
/>
<path fill="#858782" d="
  M 443.05 269.44
  L 444.06 266.94
  L 444.59 264.60
  L 444.64 262.44
  L 444.21 260.45
  L 444.21 260.45
  L 443.31 258.64
  L 441.94 257.00
  L 440.09 255.53
  L 437.77 254.22
  L 439.43 254.79
  L 440.90 255.60
  L 442.25 256.67
  L 443.37 257.93
  L 444.24 259.36
  L 444.85 260.91
  L 445.17 262.53
  L 445.19 264.21
  L 444.97 265.60
  L 444.52 266.98
  L 443.89 268.24
  L 443.05 269.44
  Z"
/>
<path fill="#858782" d="
  M 418.75 266.78
  L 412.85 273.70
  L 409.27 277.36
  L 405.51 280.85
  L 409.22 276.37
  L 413.16 272.10
  L 413.16 272.10
  L 418.75 266.78
  Z"
/>
<path fill="#5caad3" d="
  M 485.29 287.36
  L 485.13 286.96
  L 485.11 286.85
  L 485.16 286.55
  L 485.73 284.40
  L 485.78 282.30
  L 485.24 279.99
  L 484.06 277.74
  L 483.08 276.47
  L 482.02 275.42
  L 480.87 274.60
  L 479.64 274.00
  L 479.64 274.00
  L 479.64 274.00
  L 478.04 273.58
  L 476.32 273.47
  L 474.48 273.69
  L 472.51 274.23
  L 472.02 274.43
  L 470.38 275.63
  L 452.59 294.23
  L 431.43 315.67
  L 430.62 316.70
  L 430.05 317.88
  L 429.69 319.27
  L 429.57 320.74
  L 429.69 322.40
  L 430.05 324.02
  L 430.64 325.63
  L 431.42 327.04
  L 432.44 328.28
  L 433.66 329.29
  L 435.13 330.10
  L 436.72 330.64
  L 438.37 330.90
  L 440.05 330.87
  L 441.69 330.55
  L 443.24 329.93
  L 445.20 328.53
  L 447.80 326.03
  L 462.85 310.42
  L 477.05 296.05
  L 485.19 287.88
  L 494.87 289.85
  L 504.39 292.10
  L 513.77 294.60
  L 523.00 297.38
  L 523.45 297.45
  L 523.93 297.34
  L 524.18 297.24
  L 526.32 296.30
  L 527.87 295.33
  L 528.06 295.18
  L 530.38 293.41
  L 534.15 290.96
  L 533.76 291.52
  L 532.86 292.35
  L 465.10 338.94
  L 448.72 350.42
  L 428.15 365.16
  L 424.52 368.05
  L 423.28 369.31
  L 422.43 370.43
  L 421.72 371.77
  L 421.20 373.17
  L 420.76 375.75
  L 420.92 378.50
  L 421.60 380.70
  L 421.60 380.70
  L 422.62 382.30
  L 424.05 383.70
  L 425.90 384.91
  L 428.16 385.92
  L 426.03 385.58
  L 424.28 384.72
  L 423.35 383.88
  L 422.26 382.41
  L 420.88 380.06
  L 420.18 378.01
  L 420.18 378.01
  L 420.11 376.91
  L 420.25 375.78
  L 420.30 375.55
  L 420.92 372.82
  L 421.52 370.94
  L 422.28 369.42
  L 423.18 368.22
  L 424.39 367.16
  L 446.44 351.27
  L 446.70 350.69
  L 446.58 350.16
  L 446.32 349.88
  L 445.74 349.90
  L 444.90 350.43
  L 444.51 350.61
  L 444.10 350.54
  L 442.72 350.12
  L 441.04 349.98
  L 438.40 349.98
  L 426.08 349.93
  L 416.73 349.64
  L 375.92 347.75
  L 373.26 347.29
  L 372.57 347.15
  L 371.02 347.15
  L 370.16 347.54
  L 366.53 350.67
  L 434.59 277.64
  L 435.43 278.06
  L 435.43 278.06
  L 438.38 279.27
  L 441.50 280.13
  L 447.29 281.35
  L 458.51 284.72
  L 459.27 284.85
  L 460.04 284.77
  L 460.76 284.49
  L 461.37 284.02
  L 470.51 275.04
  L 471.57 274.21
  L 472.72 273.59
  L 472.72 273.59
  L 472.72 273.59
  L 473.92 273.18
  L 475.20 272.96
  L 478.02 273.11
  L 480.35 273.78
  L 482.35 274.89
  L 483.58 275.93
  L 484.64 277.19
  L 485.45 278.75
  L 485.92 280.73
  L 486.05 283.20
  L 485.84 286.15
  L 485.64 286.85
  L 485.29 287.36
  Z"
/>
<path fill="#000000" d="
  M 485.29 287.36
  L 485.16 287.46
  L 485.19 287.88
  L 477.05 296.05
  L 462.85 310.42
  L 447.80 326.03
  L 445.20 328.53
  L 443.24 329.93
  L 441.69 330.55
  L 440.05 330.87
  L 438.37 330.90
  L 436.72 330.64
  L 435.13 330.10
  L 433.66 329.29
  L 432.44 328.28
  L 431.42 327.04
  L 430.64 325.63
  L 430.05 324.02
  L 429.69 322.40
  L 429.57 320.74
  L 429.69 319.27
  L 430.05 317.88
  L 430.62 316.70
  L 431.43 315.67
  L 452.59 294.23
  L 470.38 275.63
  L 472.02 274.43
  L 472.51 274.23
  L 474.48 273.69
  L 476.32 273.47
  L 478.04 273.58
  L 479.64 274.00
  L 479.64 274.00
  L 480.87 274.60
  L 482.02 275.42
  L 483.08 276.47
  L 484.06 277.74
  L 485.24 279.99
  L 485.78 282.30
  L 485.78 282.30
  L 485.73 284.40
  L 485.16 286.55
  L 485.11 286.85
  L 485.13 286.96
  L 485.29 287.36
  Z"
/>
<path fill="#3498c9" d="
  M 592.62 276.99
  L 591.85 276.45
  L 591.03 276.19
  L 591.03 276.19
  L 589.66 276.34
  L 588.19 277.18
  L 581.64 281.93
  L 573.86 286.91
  L 583.20 279.92
  L 589.52 275.49
  L 590.39 275.09
  L 591.14 275.09
  L 591.14 275.09
  L 591.98 275.69
  L 592.62 276.99
  Z"
/>
<path fill="#3498c9" d="
  M 566.20 292.73
  L 566.33 292.81
  L 566.93 292.86
  L 567.52 292.52
  L 568.74 292.00
  L 581.63 289.29
  L 596.45 286.96
  L 598.00 286.93
  L 599.12 286.96
  L 599.47 286.84
  L 599.50 286.48
  L 599.10 285.32
  L 598.44 284.16
  L 596.37 281.90
  L 595.63 280.99
  L 595.15 279.74
  L 667.95 365.99
  L 668.53 366.78
  L 668.62 367.18
  L 668.62 367.18
  L 668.21 367.19
  L 667.31 366.81
  L 642.45 354.33
  L 618.20 341.72
  L 548.98 305.10
  L 548.51 304.69
  L 548.29 304.13
  L 548.70 303.67
  L 565.46 292.53
  L 565.90 292.43
  L 566.20 292.73
  Z"
/>
<path fill="#858782" d="
  M 396.77 290.50
  L 404.43 282.08
  L 396.77 290.50
  Z"
/>
<path fill="#858782" d="
  M 569.01 290.29
  L 568.18 291.31
  L 567.20 291.88
  L 566.70 292.00
  L 567.42 291.22
  L 568.25 290.63
  L 569.01 290.29
  Z"
/>
<path fill="#858782" d="
  M 394.25 293.25
  L 390.30 297.86
  L 386.24 302.12
  L 381.94 306.18
  L 394.25 293.25
  Z"
/>
<path fill="#858782" d="
  M 378.20 310.37
  L 364.75 324.84
  L 378.20 310.37
  Z"
/>
<path fill="#3498c9" d="
  M 530.99 316.88
  L 624.52 366.34
  L 624.70 366.73
  L 624.36 367.00
  L 458.40 367.00
  L 458.07 366.76
  L 458.21 366.36
  L 530.63 316.90
  L 530.99 316.88
  Z"
/>
<path fill="#858782" d="
  M 364.75 324.84
  L 363.65 326.27
  L 363.65 326.27
  L 359.80 330.68
  L 355.49 334.73
  L 359.73 329.65
  L 364.44 325.11
  L 364.75 324.84
  Z"
/>
<path fill="#858782" d="
  M 351.66 338.84
  L 347.39 344.02
  L 342.71 348.51
  L 351.66 338.84
  Z"
/>
<path fill="#858782" d="
  M 349.55 369.06
  L 348.35 370.84
  L 347.10 372.21
  L 345.80 373.17
  L 344.45 373.71
  L 342.07 374.13
  L 339.89 374.16
  L 337.92 373.82
  L 336.16 373.11
  L 336.16 373.11
  L 336.16 373.11
  L 336.16 373.11
  L 334.70 372.10
  L 333.43 370.76
  L 332.33 369.09
  L 331.41 367.09
  L 331.03 365.63
  L 330.97 364.15
  L 331.22 362.69
  L 331.75 361.22
  L 332.61 359.59
  L 335.17 356.27
  L 339.44 352.05
  L 339.68 351.83
  L 335.54 356.75
  L 333.15 359.70
  L 332.42 360.93
  L 332.01 362.00
  L 331.71 363.75
  L 331.73 365.45
  L 332.04 367.08
  L 332.64 368.60
  L 333.49 369.94
  L 334.58 371.12
  L 335.91 372.13
  L 337.46 372.92
  L 339.28 373.47
  L 341.09 373.63
  L 341.09 373.63
  L 343.23 373.31
  L 345.35 372.44
  L 347.45 371.02
  L 349.55 369.06
  Z"
/>
<path fill="#5caad3" d="
  M 362.51 355.26
  L 352.99 365.39
  L 356.92 360.68
  L 356.92 360.68
  L 359.63 357.89
  L 362.51 355.26
  Z"
/>
<path fill="#858782" d="
  M 515.35 385.89
  L 479.94 385.88
  L 515.35 385.89
  Z"
/>
<path fill="#858782" d="
  M 378.80 617.23
  L 379.15 617.27
  L 379.40 617.32
  L 379.74 617.49
  L 382.46 619.25
  L 385.26 620.75
  L 388.13 621.99
  L 391.07 622.97
  L 391.07 622.97
  L 391.07 622.97
  L 391.07 622.97
  L 393.82 623.64
  L 396.64 624.09
  L 414.39 624.14
  L 611.73 624.20
  L 619.40 624.27
  L 623.95 624.27
  L 627.06 624.03
  L 630.01 623.48
  L 632.85 622.72
  L 635.59 621.74
  L 638.22 620.56
  L 640.87 619.09
  L 643.40 617.39
  L 646.55 614.86
  L 649.40 612.14
  L 651.95 609.23
  L 654.21 606.11
  L 656.06 602.99
  L 657.65 599.69
  L 659.53 594.17
  L 662.00 585.00
  L 670.03 552.82
  L 670.70 549.97
  L 672.39 542.21
  L 674.84 532.21
  L 686.08 486.18
  L 686.29 485.28
  L 692.79 458.20
  L 701.09 424.65
  L 702.68 418.94
  L 703.50 415.18
  L 703.54 412.53
  L 702.94 409.95
  L 702.04 407.73
  L 700.86 405.87
  L 699.38 404.36
  L 699.38 404.36
  L 699.38 404.36
  L 697.73 403.27
  L 695.82 402.49
  L 693.67 402.02
  L 691.25 401.87
  L 464.50 401.92
  L 358.78 401.92
  L 344.09 401.69
  L 329.38 401.79
  L 326.82 402.13
  L 324.85 402.97
  L 322.62 404.69
  L 321.25 406.32
  L 320.53 407.73
  L 320.03 409.13
  L 319.75 410.52
  L 319.69 411.90
  L 319.69 411.90
  L 319.69 411.90
  L 319.96 413.72
  L 320.62 415.52
  L 321.67 417.30
  L 323.11 419.07
  L 321.76 417.99
  L 320.69 416.83
  L 319.89 415.60
  L 319.37 414.28
  L 319.37 414.28
  L 319.37 414.28
  L 319.11 412.00
  L 319.32 409.94
  L 319.78 408.08
  L 320.50 406.43
  L 321.47 404.99
  L 321.47 404.99
  L 321.47 404.99
  L 322.88 403.59
  L 324.63 402.47
  L 326.28 401.83
  L 328.41 401.38
  L 331.02 401.10
  L 334.11 401.01
  L 686.75 401.00
  L 692.04 401.21
  L 695.40 401.84
  L 697.72 402.82
  L 699.67 404.03
  L 701.27 405.45
  L 702.51 407.08
  L 702.51 407.08
  L 702.51 407.08
  L 703.22 408.53
  L 703.72 410.11
  L 703.99 411.82
  L 704.04 413.67
  L 703.75 416.08
  L 702.99 419.49
  L 702.23 422.94
  L 701.21 427.05
  L 700.13 431.35
  L 699.39 434.74
  L 687.67 482.50
  L 685.98 489.50
  L 661.08 591.85
  L 659.64 596.75
  L 657.76 601.30
  L 655.46 605.51
  L 652.72 609.37
  L 652.72 609.37
  L 648.96 613.45
  L 644.62 617.06
  L 639.69 620.19
  L 634.16 622.85
  L 631.01 623.92
  L 627.48 624.63
  L 624.42 624.93
  L 620.57 625.02
  L 402.25 625.01
  L 398.62 624.86
  L 395.11 624.42
  L 391.70 623.67
  L 388.41 622.62
  L 383.72 620.51
  L 379.27 617.73
  L 378.87 617.33
  L 378.80 617.23
  Z"
/>
<path fill="#000000" d="
  M 378.80 617.23
  L 378.43 616.62
  L 377.78 616.48
  L 377.09 616.02
  L 376.63 615.44
  L 376.58 615.33
  L 371.33 610.03
  L 370.36 608.93
  L 370.09 608.26
  L 367.67 604.38
  L 365.66 600.49
  L 364.05 596.59
  L 362.86 592.68
  L 356.92 568.46
  L 349.32 536.31
  L 335.07 476.02
  L 333.09 468.24
  L 330.90 460.55
  L 330.60 457.96
  L 330.71 455.66
  L 331.23 453.64
  L 332.14 451.91
  L 332.14 451.91
  L 333.10 450.79
  L 334.28 449.83
  L 335.68 449.04
  L 337.32 448.40
  L 340.24 448.00
  L 343.18 447.66
  L 343.45 448.05
  L 344.69 448.79
  L 345.24 448.92
  L 347.01 450.18
  L 347.17 450.45
  L 347.17 450.45
  L 348.58 453.35
  L 349.58 456.49
  L 360.77 503.60
  L 378.70 579.22
  L 380.91 587.45
  L 381.98 590.56
  L 383.03 593.01
  L 384.78 596.12
  L 386.80 598.81
  L 389.07 601.08
  L 391.60 602.93
  L 391.60 602.93
  L 391.60 602.93
  L 391.60 602.93
  L 394.05 604.21
  L 396.69 605.16
  L 398.74 605.49
  L 402.23 605.73
  L 413.57 605.92
  L 514.12 605.93
  L 614.67 605.92
  L 615.45 605.92
  L 620.16 605.88
  L 623.17 605.68
  L 625.78 605.26
  L 628.09 604.57
  L 630.67 603.36
  L 633.34 601.57
  L 636.16 599.04
  L 638.48 596.16
  L 638.48 596.16
  L 640.44 592.59
  L 641.78 588.61
  L 652.94 543.01
  L 653.18 542.48
  L 682.63 421.18
  L 682.57 420.59
  L 682.02 420.40
  L 325.54 420.39
  L 323.11 419.07
  L 321.67 417.30
  L 320.62 415.52
  L 319.96 413.72
  L 319.69 411.90
  L 319.69 411.90
  L 319.69 411.90
  L 319.69 411.90
  L 319.75 410.52
  L 320.03 409.13
  L 320.53 407.73
  L 321.25 406.32
  L 322.62 404.69
  L 324.85 402.97
  L 326.82 402.13
  L 329.38 401.79
  L 344.09 401.69
  L 358.78 401.92
  L 464.50 401.92
  L 691.25 401.87
  L 693.67 402.02
  L 695.82 402.49
  L 697.73 403.27
  L 699.38 404.36
  L 699.38 404.36
  L 700.86 405.87
  L 702.04 407.73
  L 702.94 409.95
  L 703.54 412.53
  L 703.50 415.18
  L 702.68 418.94
  L 701.09 424.65
  L 692.79 458.20
  L 686.29 485.28
  L 686.08 486.18
  L 674.84 532.21
  L 672.39 542.21
  L 670.70 549.97
  L 670.03 552.82
  L 662.00 585.00
  L 659.53 594.17
  L 657.65 599.69
  L 656.06 602.99
  L 654.21 606.11
  L 651.95 609.23
  L 649.40 612.14
  L 646.55 614.86
  L 643.40 617.39
  L 640.87 619.09
  L 638.22 620.56
  L 638.22 620.56
  L 638.22 620.56
  L 635.59 621.74
  L 632.85 622.72
  L 630.01 623.48
  L 627.06 624.03
  L 623.95 624.27
  L 619.40 624.27
  L 611.73 624.20
  L 414.39 624.14
  L 396.64 624.09
  L 393.82 623.64
  L 391.07 622.97
  L 388.13 621.99
  L 385.26 620.75
  L 382.46 619.25
  L 379.74 617.49
  L 379.40 617.32
  L 379.15 617.27
  L 378.80 617.23
  Z"
/>
<path fill="#3498c9" d="
  M 653.18 542.48
  L 653.09 540.82
  L 653.51 538.79
  L 656.87 525.03
  L 660.14 511.27
  L 663.82 496.06
  L 665.18 491.15
  L 665.86 488.24
  L 666.10 485.90
  L 666.42 484.97
  L 666.82 484.45
  L 666.96 484.19
  L 667.00 483.76
  L 666.84 483.36
  L 666.52 483.08
  L 666.10 482.98
  L 358.87 482.98
  L 357.83 483.13
  L 357.17 483.58
  L 356.88 484.33
  L 356.98 485.38
  L 370.16 540.85
  L 370.51 541.78
  L 371.08 542.45
  L 371.08 542.45
  L 371.87 542.85
  L 372.87 542.99
  L 490.75 542.99
  L 494.92 542.75
  L 495.10 542.73
  L 497.15 542.63
  L 499.37 542.83
  L 502.04 543.04
  L 504.65 542.86
  L 506.29 542.54
  L 510.22 542.98
  L 512.70 542.84
  L 515.17 542.40
  L 516.12 542.64
  L 518.09 542.82
  L 520.13 542.57
  L 521.89 542.51
  L 524.37 542.90
  L 526.34 543.01
  L 652.94 543.01
  L 641.78 588.61
  L 640.44 592.59
  L 638.48 596.16
  L 638.48 596.16
  L 636.16 599.04
  L 633.34 601.57
  L 630.67 603.36
  L 628.09 604.57
  L 625.78 605.26
  L 623.17 605.68
  L 620.16 605.88
  L 615.45 605.92
  L 614.67 605.92
  L 514.12 605.93
  L 413.57 605.92
  L 402.23 605.73
  L 398.74 605.49
  L 396.69 605.16
  L 394.05 604.21
  L 391.60 602.93
  L 391.60 602.93
  L 389.07 601.08
  L 386.80 598.81
  L 384.78 596.12
  L 383.03 593.01
  L 381.98 590.56
  L 380.91 587.45
  L 378.70 579.22
  L 360.77 503.60
  L 349.58 456.49
  L 348.58 453.35
  L 347.17 450.45
  L 347.17 450.45
  L 347.01 450.18
  L 339.74 421.55
  L 339.50 421.15
  L 339.04 421.04
  L 334.95 421.15
  L 330.88 420.99
  L 330.88 420.99
  L 325.54 420.39
  L 682.02 420.40
  L 682.57 420.59
  L 682.63 421.18
  L 653.18 542.48
  Z"
/>
<path fill="#3498c9" d="
  M 343.18 447.66
  L 340.24 448.00
  L 337.32 448.40
  L 335.68 449.04
  L 334.28 449.83
  L 333.10 450.79
  L 332.14 451.91
  L 332.14 451.91
  L 331.23 453.64
  L 330.71 455.66
  L 330.60 457.96
  L 330.90 460.55
  L 330.63 460.73
  L 329.88 457.15
  L 329.89 455.78
  L 330.17 454.69
  L 331.35 452.38
  L 332.72 450.50
  L 334.28 449.05
  L 336.03 448.02
  L 336.03 448.02
  L 336.03 448.02
  L 336.03 448.02
  L 337.62 447.49
  L 339.35 447.25
  L 341.20 447.31
  L 343.18 447.66
  Z"
/>
<path fill="#858782" d="
  M 345.24 448.92
  L 344.69 448.79
  L 343.45 448.05
  L 344.58 448.31
  L 345.24 448.92
  Z"
/>
<path fill="#858782" d="
  M 330.90 460.55
  L 333.09 468.24
  L 335.07 476.02
  L 349.32 536.31
  L 356.92 568.46
  L 362.86 592.68
  L 364.05 596.59
  L 365.66 600.49
  L 367.67 604.38
  L 370.09 608.26
  L 367.70 605.06
  L 365.77 602.00
  L 364.28 599.06
  L 363.24 596.26
  L 356.71 569.68
  L 355.55 565.40
  L 354.85 562.14
  L 354.32 559.59
  L 347.43 530.67
  L 341.73 507.41
  L 337.18 487.93
  L 333.37 471.67
  L 330.63 460.73
  L 330.90 460.55
  Z"
/>
<path fill="#f7bb5d" d="
  M 515.17 542.40
  L 512.70 542.84
  L 510.22 542.98
  L 510.22 542.98
  L 506.29 542.54
  L 507.59 541.75
  L 508.15 540.83
  L 508.15 540.83
  L 508.07 539.98
  L 507.46 537.84
  L 507.20 535.82
  L 507.28 533.92
  L 507.71 532.13
  L 507.71 532.13
  L 507.71 532.13
  L 507.81 531.85
  L 507.97 531.06
  L 507.98 530.22
  L 507.75 529.49
  L 507.46 529.21
  L 507.46 529.21
  L 507.08 529.42
  L 506.63 530.13
  L 501.88 539.56
  L 501.51 539.87
  L 501.03 539.83
  L 497.72 538.07
  L 497.12 537.58
  L 496.76 536.90
  L 496.69 536.14
  L 496.92 535.40
  L 496.93 535.38
  L 501.27 527.67
  L 501.29 527.58
  L 501.27 527.52
  L 501.13 527.29
  L 501.10 527.24
  L 500.77 527.08
  L 500.44 527.21
  L 497.03 530.49
  L 494.29 532.46
  L 493.16 532.90
  L 492.10 532.92
  L 492.10 532.92
  L 490.86 532.38
  L 489.62 531.13
  L 488.83 529.49
  L 488.83 529.02
  L 489.12 528.66
  L 492.78 525.74
  L 495.76 522.48
  L 495.87 522.15
  L 495.56 521.99
  L 494.23 521.90
  L 493.32 522.07
  L 487.83 524.19
  L 487.04 524.30
  L 486.26 524.11
  L 485.61 523.66
  L 485.17 522.99
  L 484.26 520.83
  L 484.14 519.63
  L 484.73 518.57
  L 485.30 518.06
  L 487.70 516.56
  L 489.18 516.16
  L 491.46 515.99
  L 494.23 515.73
  L 495.07 515.44
  L 495.73 514.96
  L 495.92 514.55
  L 495.53 514.30
  L 493.26 513.97
  L 489.77 513.77
  L 487.77 513.24
  L 484.40 511.73
  L 484.05 511.42
  L 483.96 510.97
  L 484.21 509.55
  L 484.72 508.27
  L 485.29 507.37
  L 485.64 507.07
  L 486.13 506.96
  L 489.94 507.07
  L 492.61 507.69
  L 495.00 507.95
  L 495.86 507.92
  L 496.20 507.74
  L 496.20 507.74
  L 496.02 507.39
  L 495.32 506.89
  L 493.11 505.39
  L 491.12 503.67
  L 491.12 503.67
  L 489.30 501.68
  L 488.93 501.08
  L 488.82 500.49
  L 488.82 500.49
  L 489.21 499.51
  L 490.43 498.08
  L 491.30 497.31
  L 492.23 496.97
  L 492.23 496.97
  L 492.23 496.97
  L 493.55 497.14
  L 494.98 498.05
  L 501.46 503.75
  L 501.91 503.94
  L 502.18 503.50
  L 501.97 502.80
  L 497.53 494.33
  L 497.12 493.31
  L 497.14 492.41
  L 497.67 491.54
  L 498.75 490.81
  L 500.18 490.12
  L 501.28 489.77
  L 502.19 489.87
  L 502.19 489.87
  L 502.19 489.87
  L 502.95 490.47
  L 503.51 491.58
  L 504.93 495.42
  L 506.34 498.55
  L 507.04 499.71
  L 507.56 500.03
  L 507.56 500.03
  L 507.89 499.52
  L 508.03 498.18
  L 508.03 493.77
  L 507.75 489.78
  L 507.77 489.09
  L 508.02 488.60
  L 508.02 488.60
  L 508.48 488.31
  L 509.16 488.21
  L 513.02 488.21
  L 513.65 488.30
  L 514.07 488.57
  L 514.27 489.03
  L 514.27 489.66
  L 513.87 494.58
  L 514.08 500.08
  L 514.23 500.98
  L 514.47 501.32
  L 514.47 501.32
  L 514.47 501.32
  L 514.81 501.08
  L 515.25 500.27
  L 519.07 491.69
  L 519.70 490.69
  L 520.50 490.13
  L 520.50 490.13
  L 521.46 490.02
  L 522.60 490.34
  L 524.60 491.22
  L 525.51 491.80
  L 525.97 492.51
  L 525.97 492.51
  L 525.97 492.51
  L 525.98 493.36
  L 525.54 494.34
  L 521.78 500.30
  L 521.02 501.73
  L 521.00 502.45
  L 521.00 502.45
  L 521.74 502.45
  L 523.23 501.73
  L 525.21 500.14
  L 528.72 496.78
  L 529.66 496.08
  L 530.58 495.88
  L 531.47 496.17
  L 532.34 496.94
  L 533.54 498.34
  L 534.15 499.31
  L 534.30 500.25
  L 534.30 500.25
  L 534.30 500.25
  L 534.00 501.15
  L 533.23 502.02
  L 528.11 506.35
  L 527.28 507.17
  L 527.11 507.66
  L 527.61 507.81
  L 528.76 507.64
  L 536.64 506.40
  L 537.07 506.47
  L 537.33 506.80
  L 538.53 509.66
  L 538.58 509.78
  L 538.69 510.61
  L 538.46 511.42
  L 537.93 512.07
  L 537.18 512.46
  L 530.72 513.97
  L 529.13 514.36
  L 528.57 514.86
  L 528.57 514.86
  L 528.57 514.86
  L 529.03 515.44
  L 530.51 516.13
  L 535.30 517.26
  L 536.69 517.73
  L 537.61 518.53
  L 537.61 518.53
  L 538.04 519.56
  L 538.06 520.88
  L 537.97 521.67
  L 537.63 522.94
  L 536.97 523.71
  L 536.97 523.71
  L 535.99 523.98
  L 534.70 523.76
  L 526.75 521.20
  L 526.27 521.20
  L 525.95 521.59
  L 525.92 522.24
  L 526.21 522.58
  L 530.15 525.41
  L 533.42 528.29
  L 534.09 529.17
  L 534.29 530.02
  L 534.02 530.87
  L 533.29 531.69
  L 531.66 533.07
  L 530.77 533.63
  L 529.91 533.78
  L 529.91 533.78
  L 529.91 533.78
  L 529.08 533.52
  L 528.28 532.86
  L 525.01 529.42
  L 522.86 527.50
  L 521.60 526.70
  L 520.44 526.25
  L 519.99 526.36
  L 519.83 526.80
  L 519.89 526.98
  L 524.95 535.75
  L 525.31 536.85
  L 525.18 538.00
  L 524.60 539.00
  L 523.66 539.67
  L 523.36 539.78
  L 522.70 539.98
  L 521.64 540.15
  L 520.71 539.99
  L 520.71 539.99
  L 519.92 539.47
  L 519.26 538.62
  L 514.41 530.23
  L 514.23 530.04
  L 514.14 530.29
  L 513.91 534.41
  L 513.94 538.30
  L 513.95 539.30
  L 513.97 540.39
  L 514.17 541.15
  L 515.17 542.40
  Z"
/>
<path fill="#858782" d="
  M 376.58 615.33
  L 375.03 614.32
  L 373.66 613.13
  L 372.40 611.68
  L 371.33 610.03
  L 376.58 615.33
  Z"
/>
<path fill="#858782" d="
  M 378.80 617.23
  L 378.35 617.03
  L 377.78 616.48
  L 378.43 616.62
  L 378.80 617.23
  Z"
/>
<path fill="#858782" d="
  M 305.47 682.05
  L 300.94 680.11
  L 296.35 678.46
  L 291.70 677.10
  L 287.00 676.04
  L 287.00 676.04
  L 282.40 675.29
  L 277.75 674.82
  L 272.53 674.57
  L 267.46 674.59
  L 262.56 674.87
  L 257.81 675.42
  L 254.06 676.11
  L 250.43 677.05
  L 246.93 678.25
  L 243.55 679.71
  L 243.55 679.71
  L 243.55 679.71
  L 238.32 682.64
  L 233.41 686.26
  L 230.49 688.91
  L 227.88 691.73
  L 225.56 694.72
  L 223.54 697.88
  L 223.54 697.88
  L 221.46 702.05
  L 219.77 706.61
  L 219.77 706.61
  L 218.76 710.39
  L 218.07 714.26
  L 217.68 718.22
  L 217.61 722.29
  L 217.84 728.94
  L 218.11 732.42
  L 218.66 735.52
  L 219.01 736.93
  L 219.01 736.93
  L 220.61 742.12
  L 222.67 747.19
  L 220.51 743.39
  L 219.40 740.87
  L 218.23 736.54
  L 217.39 732.21
  L 216.87 727.88
  L 216.68 723.55
  L 216.68 723.55
  L 216.68 723.55
  L 216.81 719.20
  L 217.26 714.84
  L 218.04 710.49
  L 219.15 706.13
  L 220.86 701.98
  L 224.08 696.05
  L 226.77 692.03
  L 229.88 688.42
  L 229.88 688.42
  L 233.71 685.00
  L 238.03 682.06
  L 244.12 678.90
  L 250.36 676.50
  L 253.34 675.66
  L 256.53 674.98
  L 263.55 674.10
  L 270.83 673.88
  L 278.25 674.29
  L 285.79 675.34
  L 293.47 677.03
  L 296.93 678.05
  L 300.08 679.22
  L 302.93 680.55
  L 305.47 682.05
  Z"
/>
<path fill="#858782" d="
  M 439.79 744.97
  L 434.90 759.55
  L 434.80 760.27
  L 434.97 760.99
  L 435.38 761.59
  L 435.98 762.00
  L 439.89 763.62
  L 443.84 765.01
  L 447.83 766.18
  L 451.85 767.12
  L 458.71 768.40
  L 461.96 768.86
  L 465.55 769.11
  L 474.36 769.19
  L 481.64 768.65
  L 485.05 768.11
  L 488.24 767.41
  L 491.33 766.52
  L 494.41 765.41
  L 495.58 764.93
  L 498.53 763.49
  L 501.12 761.85
  L 503.34 760.03
  L 505.19 758.02
  L 506.98 755.45
  L 508.41 752.73
  L 508.41 752.73
  L 509.48 749.82
  L 510.18 746.74
  L 510.68 741.92
  L 510.57 737.36
  L 509.85 733.05
  L 508.51 729.00
  L 508.51 729.00
  L 508.51 729.00
  L 508.43 728.81
  L 508.16 728.22
  L 506.96 726.03
  L 505.52 724.03
  L 503.77 722.14
  L 501.82 720.46
  L 499.53 718.86
  L 497.07 717.49
  L 494.42 716.31
  L 491.50 715.29
  L 486.74 714.02
  L 482.15 713.15
  L 467.29 710.66
  L 463.95 709.91
  L 461.35 708.90
  L 459.39 707.61
  L 458.05 706.04
  L 457.21 703.99
  L 456.97 701.64
  L 457.18 700.02
  L 457.76 698.60
  L 457.76 698.60
  L 459.16 696.99
  L 460.87 695.85
  L 460.87 695.85
  L 463.26 694.87
  L 465.91 694.37
  L 470.20 694.12
  L 474.45 694.13
  L 478.66 694.41
  L 482.82 694.95
  L 482.82 694.95
  L 482.82 694.95
  L 487.37 695.87
  L 491.87 697.11
  L 496.31 698.67
  L 500.70 700.56
  L 500.74 700.58
  L 501.38 700.56
  L 501.80 700.08
  L 507.35 682.85
  L 507.45 682.26
  L 507.35 681.77
  L 506.55 681.04
  L 503.34 679.70
  L 500.02 678.55
  L 496.58 677.58
  L 493.02 676.81
  L 486.66 675.75
  L 481.05 675.09
  L 475.79 674.84
  L 470.48 674.97
  L 465.10 675.50
  L 459.67 676.41
  L 455.34 677.54
  L 451.52 679.06
  L 447.25 681.39
  L 444.13 683.69
  L 442.47 685.35
  L 441.02 687.16
  L 441.02 687.16
  L 439.29 690.05
  L 438.00 693.25
  L 437.14 696.76
  L 436.72 700.59
  L 436.71 706.17
  L 437.34 711.01
  L 438.61 715.20
  L 439.50 717.08
  L 440.58 718.88
  L 442.44 721.24
  L 444.75 723.42
  L 447.41 725.13
  L 448.26 725.66
  L 450.18 727.02
  L 447.40 725.78
  L 444.93 724.29
  L 442.75 722.55
  L 440.87 720.57
  L 440.87 720.57
  L 438.71 717.32
  L 437.15 713.56
  L 436.48 710.98
  L 436.05 708.28
  L 435.84 705.45
  L 435.86 702.49
  L 436.36 697.80
  L 437.41 693.53
  L 439.03 689.69
  L 441.19 686.28
  L 441.19 686.28
  L 441.19 686.28
  L 443.44 683.74
  L 446.08 681.51
  L 449.11 679.57
  L 452.53 677.93
  L 456.90 676.43
  L 461.79 675.31
  L 467.20 674.57
  L 473.14 674.21
  L 476.57 674.21
  L 478.98 674.43
  L 482.86 674.77
  L 486.69 675.07
  L 491.66 675.93
  L 496.66 677.11
  L 501.68 678.60
  L 506.73 680.42
  L 507.43 680.86
  L 507.93 681.53
  L 508.14 682.34
  L 508.04 683.16
  L 502.80 699.42
  L 502.75 699.55
  L 502.26 700.32
  L 501.49 700.82
  L 500.59 700.99
  L 499.70 700.78
  L 494.26 698.57
  L 488.70 696.88
  L 488.70 696.88
  L 488.70 696.88
  L 483.26 695.75
  L 477.71 695.09
  L 472.04 694.91
  L 466.25 695.20
  L 463.51 695.62
  L 461.30 696.35
  L 460.13 697.05
  L 459.21 697.94
  L 458.62 698.89
  L 458.22 699.98
  L 457.92 701.57
  L 457.88 702.99
  L 458.08 704.33
  L 458.53 705.50
  L 459.15 706.46
  L 459.95 707.29
  L 462.14 708.67
  L 465.21 709.72
  L 469.26 710.45
  L 483.20 712.59
  L 488.40 713.70
  L 493.19 715.21
  L 497.58 717.11
  L 501.55 719.42
  L 504.20 721.50
  L 506.42 723.91
  L 506.42 723.91
  L 506.42 723.91
  L 506.42 723.91
  L 507.78 725.89
  L 508.90 728.05
  L 509.80 730.39
  L 510.46 732.91
  L 511.09 736.84
  L 511.32 740.68
  L 511.16 744.43
  L 510.59 748.10
  L 510.59 748.10
  L 509.68 751.49
  L 508.57 754.14
  L 506.99 756.69
  L 504.93 759.15
  L 502.41 761.51
  L 500.16 763.18
  L 497.62 764.66
  L 494.81 765.94
  L 491.72 767.02
  L 485.94 768.55
  L 480.32 769.56
  L 474.84 770.06
  L 469.51 770.04
  L 463.14 769.48
  L 456.48 768.45
  L 449.52 766.96
  L 442.26 765.00
  L 438.18 763.58
  L 434.61 761.86
  L 434.01 761.17
  L 433.99 760.25
  L 438.38 747.33
  L 438.74 746.47
  L 439.79 744.97
  Z"
/>
<path fill="#000000" d="
  M 305.47 682.05
  L 305.56 682.09
  L 305.56 682.09
  L 306.02 682.71
  L 306.19 683.83
  L 305.45 684.57
  L 304.82 685.81
  L 298.76 700.95
  L 298.74 701.01
  L 298.10 701.56
  L 297.26 701.47
  L 291.43 698.63
  L 285.39 696.51
  L 285.39 696.51
  L 285.39 696.51
  L 285.39 696.51
  L 281.31 695.49
  L 277.15 694.79
  L 272.89 694.39
  L 268.55 694.29
  L 263.41 694.72
  L 258.49 695.87
  L 255.67 696.90
  L 252.93 698.19
  L 250.70 699.48
  L 248.67 700.94
  L 246.82 702.55
  L 245.15 704.32
  L 245.15 704.32
  L 245.15 704.32
  L 243.41 706.65
  L 241.94 709.21
  L 240.57 712.50
  L 239.63 716.01
  L 239.13 719.75
  L 239.05 723.72
  L 239.27 726.51
  L 239.72 729.20
  L 240.40 731.79
  L 241.33 734.28
  L 241.33 734.28
  L 241.33 734.28
  L 241.33 734.28
  L 243.04 737.65
  L 245.23 740.82
  L 249.23 744.37
  L 253.27 746.93
  L 255.18 747.83
  L 257.00 748.48
  L 261.05 749.42
  L 265.41 749.93
  L 270.06 750.01
  L 275.02 749.66
  L 279.51 748.90
  L 283.15 747.71
  L 283.50 747.43
  L 283.63 746.98
  L 283.92 720.15
  L 305.47 719.63
  L 305.13 759.28
  L 304.77 760.54
  L 303.81 761.44
  L 303.66 761.52
  L 303.66 761.52
  L 297.33 764.37
  L 290.67 766.58
  L 283.62 768.22
  L 276.50 769.24
  L 276.50 769.24
  L 276.50 769.24
  L 271.00 769.60
  L 265.45 769.60
  L 259.88 769.24
  L 254.26 768.52
  L 250.09 767.64
  L 245.90 766.34
  L 241.89 764.67
  L 238.26 762.71
  L 233.74 760.14
  L 225.49 751.84
  L 224.64 749.83
  L 223.02 747.78
  L 222.65 747.24
  L 222.67 747.19
  L 220.61 742.12
  L 219.01 736.93
  L 218.66 735.52
  L 218.11 732.42
  L 217.84 728.94
  L 217.61 722.29
  L 217.68 718.22
  L 218.07 714.26
  L 218.76 710.39
  L 219.77 706.61
  L 219.77 706.61
  L 221.46 702.05
  L 223.54 697.88
  L 223.54 697.88
  L 225.56 694.72
  L 227.88 691.73
  L 230.49 688.91
  L 233.41 686.26
  L 238.32 682.64
  L 243.55 679.71
  L 243.55 679.71
  L 243.55 679.71
  L 243.55 679.71
  L 246.93 678.25
  L 250.43 677.05
  L 254.06 676.11
  L 257.81 675.42
  L 262.56 674.87
  L 267.46 674.59
  L 272.53 674.57
  L 277.75 674.82
  L 282.40 675.29
  L 287.00 676.04
  L 287.00 676.04
  L 291.70 677.10
  L 296.35 678.46
  L 300.94 680.11
  L 305.47 682.05
  Z"
/>
<path fill="#000000" d="
  M 439.79 744.97
  L 439.97 744.12
  L 440.65 742.54
  L 442.95 743.80
  L 445.35 744.78
  L 445.80 744.93
  L 447.27 745.24
  L 447.31 745.19
  L 448.05 745.42
  L 450.52 746.59
  L 453.84 747.63
  L 457.89 748.59
  L 461.76 749.28
  L 465.46 749.71
  L 468.99 749.87
  L 475.63 749.66
  L 477.73 749.81
  L 479.81 749.72
  L 479.81 749.72
  L 479.81 749.72
  L 481.93 749.38
  L 484.03 748.78
  L 485.58 748.12
  L 486.89 747.31
  L 487.95 746.36
  L 488.78 745.27
  L 488.78 745.27
  L 488.78 745.27
  L 489.34 744.07
  L 489.68 742.73
  L 489.80 741.26
  L 489.68 739.65
  L 489.33 738.29
  L 488.68 737.17
  L 488.15 736.62
  L 486.23 735.22
  L 483.90 734.11
  L 481.31 733.43
  L 466.43 731.11
  L 461.61 730.18
  L 453.49 728.31
  L 450.18 727.02
  L 448.26 725.66
  L 447.41 725.13
  L 444.75 723.42
  L 442.44 721.24
  L 440.58 718.88
  L 439.50 717.08
  L 438.61 715.20
  L 437.34 711.01
  L 436.71 706.17
  L 436.72 700.59
  L 437.14 696.76
  L 438.00 693.25
  L 439.29 690.05
  L 441.02 687.16
  L 441.02 687.16
  L 441.02 687.16
  L 442.47 685.35
  L 444.13 683.69
  L 447.25 681.39
  L 451.52 679.06
  L 455.34 677.54
  L 459.67 676.41
  L 465.10 675.50
  L 470.48 674.97
  L 475.79 674.84
  L 481.05 675.09
  L 486.66 675.75
  L 493.02 676.81
  L 496.58 677.58
  L 500.02 678.55
  L 503.34 679.70
  L 506.55 681.04
  L 507.35 681.77
  L 507.45 682.26
  L 507.35 682.85
  L 501.80 700.08
  L 501.38 700.56
  L 500.74 700.58
  L 500.70 700.56
  L 496.31 698.67
  L 491.87 697.11
  L 487.37 695.87
  L 482.82 694.95
  L 482.82 694.95
  L 482.82 694.95
  L 478.66 694.41
  L 474.45 694.13
  L 470.20 694.12
  L 465.91 694.37
  L 463.26 694.87
  L 460.87 695.85
  L 460.87 695.85
  L 459.16 696.99
  L 457.76 698.60
  L 457.76 698.60
  L 457.18 700.02
  L 456.97 701.64
  L 457.21 703.99
  L 458.05 706.04
  L 459.39 707.61
  L 461.35 708.90
  L 463.95 709.91
  L 467.29 710.66
  L 482.15 713.15
  L 486.74 714.02
  L 491.50 715.29
  L 494.42 716.31
  L 497.07 717.49
  L 499.53 718.86
  L 501.82 720.46
  L 503.77 722.14
  L 505.52 724.03
  L 506.96 726.03
  L 508.16 728.22
  L 508.43 728.81
  L 508.51 729.00
  L 508.51 729.00
  L 509.85 733.05
  L 510.57 737.36
  L 510.68 741.92
  L 510.18 746.74
  L 509.48 749.82
  L 508.41 752.73
  L 508.41 752.73
  L 506.98 755.45
  L 505.19 758.02
  L 503.34 760.03
  L 501.12 761.85
  L 498.53 763.49
  L 495.58 764.93
  L 494.41 765.41
  L 491.33 766.52
  L 488.24 767.41
  L 485.05 768.11
  L 481.64 768.65
  L 474.36 769.19
  L 465.55 769.11
  L 461.96 768.86
  L 458.71 768.40
  L 451.85 767.12
  L 447.83 766.18
  L 443.84 765.01
  L 439.89 763.62
  L 435.98 762.00
  L 435.38 761.59
  L 434.97 760.99
  L 434.80 760.27
  L 434.90 759.55
  L 439.79 744.97
  Z"
/>
<path fill="#858782" d="
  M 525.79 675.84
  L 525.35 676.17
  L 524.97 676.83
  L 524.85 677.75
  L 524.85 694.55
  L 524.85 694.56
  L 525.13 695.24
  L 525.81 695.52
  L 553.22 695.52
  L 553.71 695.73
  L 553.92 696.22
  L 553.92 766.25
  L 554.17 766.84
  L 554.76 767.09
  L 573.53 767.09
  L 574.14 766.97
  L 574.66 766.62
  L 575.01 766.10
  L 575.13 765.48
  L 575.13 696.20
  L 575.36 695.65
  L 575.91 695.42
  L 602.87 695.42
  L 603.28 695.25
  L 603.45 694.85
  L 603.45 677.14
  L 603.12 676.34
  L 602.32 676.00
  L 572.66 675.58
  L 587.45 674.92
  L 601.95 675.00
  L 602.73 675.18
  L 603.38 675.63
  L 603.82 676.30
  L 603.97 677.08
  L 603.97 695.52
  L 603.85 695.88
  L 603.49 696.00
  L 576.50 696.00
  L 576.13 696.12
  L 576.01 696.49
  L 576.01 765.86
  L 575.85 766.68
  L 575.39 767.37
  L 574.70 767.83
  L 573.88 767.99
  L 554.86 767.99
  L 554.13 767.84
  L 553.51 767.43
  L 553.10 766.81
  L 552.95 766.08
  L 552.95 696.66
  L 552.77 696.12
  L 552.23 695.94
  L 524.49 695.94
  L 524.16 695.83
  L 524.05 695.50
  L 524.05 677.27
  L 524.18 676.54
  L 524.57 675.91
  L 525.06 675.48
  L 525.44 675.40
  L 525.79 675.84
  Z"
/>
<path fill="#858782" d="
  M 364.52 675.32
  L 359.92 684.06
  L 355.25 693.99
  L 324.22 763.50
  L 322.94 766.05
  L 322.87 766.22
  L 323.00 766.83
  L 323.56 767.11
  L 344.39 767.11
  L 345.65 766.73
  L 346.50 765.72
  L 351.99 752.86
  L 346.84 766.42
  L 346.48 767.05
  L 345.95 767.55
  L 345.30 767.87
  L 344.58 767.98
  L 323.33 767.98
  L 323.09 767.95
  L 322.66 767.74
  L 322.36 767.37
  L 322.26 766.90
  L 322.37 766.43
  L 326.82 756.81
  L 335.27 737.48
  L 347.35 710.55
  L 352.78 698.20
  L 355.20 692.80
  L 358.44 685.93
  L 360.44 681.10
  L 361.59 678.62
  L 362.94 676.47
  L 363.79 675.56
  L 364.52 675.32
  Z"
/>
<path fill="#858782" d="
  M 372.29 675.63
  L 370.04 675.99
  L 367.67 675.59
  L 369.38 675.22
  L 371.01 675.27
  L 371.01 675.27
  L 372.29 675.63
  Z"
/>
<path fill="#858782" d="
  M 656.36 675.63
  L 654.95 675.99
  L 653.76 676.00
  L 652.54 675.76
  L 653.65 675.32
  L 653.65 675.32
  L 654.96 675.25
  L 656.36 675.63
  Z"
/>
<path fill="#858782" d="
  M 726.27 675.56
  L 725.79 681.73
  L 725.72 687.96
  L 725.88 696.05
  L 725.96 757.10
  L 725.77 761.36
  L 725.56 765.56
  L 725.63 766.24
  L 725.90 766.73
  L 725.90 766.73
  L 725.90 766.73
  L 726.37 767.02
  L 727.03 767.12
  L 741.40 767.34
  L 737.62 767.77
  L 733.89 767.99
  L 730.21 768.00
  L 726.58 767.79
  L 725.58 767.32
  L 725.13 766.32
  L 724.86 759.50
  L 724.99 677.96
  L 725.19 676.59
  L 725.59 675.73
  L 725.99 675.44
  L 726.27 675.56
  Z"
/>
<path fill="#000000" d="
  M 367.67 675.59
  L 370.04 675.99
  L 372.29 675.63
  L 383.93 676.08
  L 384.80 678.92
  L 386.40 682.87
  L 420.22 760.01
  L 421.65 762.97
  L 422.86 764.87
  L 423.60 766.61
  L 423.53 766.99
  L 423.18 767.12
  L 413.35 767.33
  L 402.43 767.30
  L 399.85 767.12
  L 395.81 757.47
  L 395.62 756.61
  L 395.32 756.27
  L 395.32 756.27
  L 395.24 756.26
  L 394.87 755.75
  L 394.79 755.27
  L 394.79 755.27
  L 394.79 755.24
  L 394.43 753.75
  L 393.82 752.42
  L 393.82 752.42
  L 393.05 751.34
  L 391.49 751.01
  L 389.40 750.90
  L 355.25 750.94
  L 353.92 751.12
  L 352.88 751.66
  L 351.99 752.86
  L 346.50 765.72
  L 345.65 766.73
  L 344.39 767.11
  L 323.56 767.11
  L 323.00 766.83
  L 322.87 766.22
  L 322.87 766.22
  L 322.94 766.05
  L 324.22 763.50
  L 355.25 693.99
  L 359.92 684.06
  L 364.52 675.32
  L 366.23 675.81
  L 367.63 675.61
  L 367.63 675.61
  L 367.67 675.59
  Z
  M 372.27 707.11
  L 371.91 707.41
  L 361.13 732.33
  L 361.18 732.86
  L 361.65 733.10
  L 361.87 733.05
  L 362.23 732.88
  L 384.26 732.78
  L 384.01 733.27
  L 384.76 732.78
  L 384.99 732.43
  L 384.94 732.03
  L 373.87 705.74
  L 373.40 705.30
  L 372.76 705.34
  L 372.70 705.38
  L 372.13 706.05
  L 372.13 706.05
  L 372.09 706.54
  L 372.27 707.11
  Z"
/>
<path fill="#000000" d="
  M 663.78 675.74
  L 664.51 676.01
  L 665.01 675.78
  L 667.29 675.87
  L 668.22 676.16
  L 669.03 676.63
  L 669.11 677.81
  L 669.13 677.85
  L 707.92 765.06
  L 708.59 765.80
  L 708.83 766.05
  L 708.96 766.44
  L 708.87 766.84
  L 708.47 766.99
  L 696.38 767.30
  L 687.76 767.39
  L 684.76 767.05
  L 684.09 764.74
  L 682.31 759.88
  L 680.06 755.16
  L 679.69 754.46
  L 679.63 753.42
  L 679.26 752.80
  L 679.26 752.80
  L 679.07 752.69
  L 678.97 752.26
  L 678.62 751.23
  L 678.09 750.76
  L 678.09 750.76
  L 677.19 750.96
  L 641.75 750.89
  L 639.47 751.08
  L 637.89 751.65
  L 635.88 755.86
  L 634.11 760.17
  L 632.03 766.46
  L 631.81 766.79
  L 608.15 767.36
  L 608.26 765.62
  L 608.52 765.01
  L 608.91 764.56
  L 609.20 764.38
  L 647.69 676.82
  L 648.62 676.30
  L 649.74 675.95
  L 652.54 675.76
  L 653.76 676.00
  L 654.95 675.99
  L 656.36 675.63
  L 663.78 675.74
  Z
  M 647.00 731.53
  L 647.12 732.36
  L 647.39 732.71
  L 647.47 732.73
  L 657.72 733.03
  L 667.93 732.87
  L 668.80 733.15
  L 669.49 733.05
  L 669.49 733.05
  L 669.53 733.03
  L 669.82 732.79
  L 669.82 732.79
  L 670.01 732.38
  L 670.02 731.82
  L 669.38 730.34
  L 668.92 729.50
  L 664.35 718.37
  L 659.48 707.74
  L 659.27 707.50
  L 658.86 707.50
  L 658.95 707.49
  L 658.78 707.15
  L 659.12 706.24
  L 659.02 705.66
  L 658.26 705.42
  L 657.89 705.54
  L 657.65 705.84
  L 647.00 731.53
  Z"
/>
<path fill="#858782" d="
  M 665.01 675.78
  L 664.51 676.01
  L 663.78 675.74
  L 664.39 675.52
  L 664.82 675.59
  L 665.01 675.78
  Z"
/>
<path fill="#000000" d="
  M 572.66 675.58
  L 602.32 676.00
  L 603.12 676.34
  L 603.45 677.14
  L 603.45 694.85
  L 603.28 695.25
  L 602.87 695.42
  L 575.91 695.42
  L 575.36 695.65
  L 575.13 696.20
  L 575.13 765.48
  L 575.01 766.10
  L 574.66 766.62
  L 574.14 766.97
  L 573.53 767.09
  L 573.53 767.09
  L 573.53 767.09
  L 554.76 767.09
  L 554.17 766.84
  L 553.92 766.25
  L 553.92 696.22
  L 553.71 695.73
  L 553.22 695.52
  L 525.81 695.52
  L 525.13 695.24
  L 524.85 694.56
  L 524.85 694.55
  L 524.85 677.75
  L 524.97 676.83
  L 525.35 676.17
  L 525.79 675.84
  L 572.66 675.58
  Z"
/>
<path fill="#000000" d="
  M 726.27 675.56
  L 728.00 675.97
  L 776.88 676.11
  L 782.25 677.41
  L 785.24 678.19
  L 787.54 678.99
  L 790.94 680.59
  L 793.98 682.49
  L 796.67 684.68
  L 798.99 687.17
  L 800.85 689.76
  L 802.38 692.61
  L 803.60 695.72
  L 804.51 699.09
  L 804.99 702.39
  L 805.18 706.44
  L 805.13 710.82
  L 804.86 713.85
  L 804.02 717.80
  L 802.80 721.45
  L 801.18 724.81
  L 799.17 727.86
  L 799.17 727.86
  L 799.17 727.86
  L 799.17 727.86
  L 796.99 730.40
  L 794.48 732.68
  L 791.65 734.72
  L 788.49 736.51
  L 788.41 736.58
  L 788.38 736.71
  L 788.32 736.91
  L 788.28 736.94
  L 787.62 737.16
  L 787.31 737.39
  L 787.36 737.80
  L 788.46 740.01
  L 800.49 756.41
  L 801.49 757.56
  L 802.20 758.76
  L 808.24 767.09
  L 805.23 767.42
  L 783.18 767.15
  L 782.42 766.95
  L 781.83 766.42
  L 767.90 746.61
  L 767.26 745.89
  L 766.69 745.56
  L 766.70 745.55
  L 766.59 745.25
  L 764.78 742.30
  L 763.11 740.41
  L 761.99 740.46
  L 761.69 740.21
  L 761.32 740.21
  L 760.95 740.28
  L 748.03 740.07
  L 747.64 739.73
  L 747.64 739.73
  L 747.40 740.14
  L 747.31 741.26
  L 747.09 765.00
  L 746.96 766.79
  L 741.40 767.34
  L 727.03 767.12
  L 726.37 767.02
  L 725.90 766.73
  L 725.90 766.73
  L 725.63 766.24
  L 725.56 765.56
  L 725.77 761.36
  L 725.96 757.10
  L 725.88 696.05
  L 725.72 687.96
  L 725.79 681.73
  L 726.27 675.56
  Z
  M 747.09 695.64
  L 747.40 705.50
  L 747.03 712.12
  L 747.22 718.69
  L 747.37 720.54
  L 747.47 720.77
  L 747.73 720.80
  L 747.98 720.71
  L 748.17 720.83
  L 748.53 720.75
  L 755.18 721.05
  L 761.77 721.05
  L 768.31 720.75
  L 774.81 720.15
  L 776.17 719.30
  L 777.75 718.72
  L 779.81 717.48
  L 781.32 715.87
  L 782.23 713.97
  L 782.64 711.72
  L 783.05 706.21
  L 783.07 704.18
  L 782.64 702.31
  L 782.64 702.31
  L 781.98 700.93
  L 781.02 699.65
  L 779.01 697.75
  L 777.78 697.02
  L 776.39 696.48
  L 774.84 696.12
  L 773.12 695.94
  L 759.09 695.52
  L 747.09 695.64
  Z"
/>
<path fill="#858782" d="
  M 422.86 764.87
  L 421.65 762.97
  L 420.22 760.01
  L 386.40 682.87
  L 384.80 678.92
  L 383.93 676.08
  L 422.86 764.87
  Z"
/>
<path fill="#858782" d="
  M 776.88 676.11
  L 781.36 676.57
  L 785.73 677.68
  L 789.89 679.39
  L 793.75 681.68
  L 797.09 684.39
  L 799.97 687.58
  L 802.28 691.14
  L 803.90 694.90
  L 804.98 698.67
  L 805.70 702.42
  L 806.04 706.15
  L 806.01 709.85
  L 806.01 709.85
  L 805.61 713.54
  L 804.83 717.21
  L 803.69 720.86
  L 802.17 724.49
  L 800.22 727.72
  L 797.23 731.23
  L 795.77 732.54
  L 793.79 733.92
  L 788.28 736.94
  L 788.32 736.91
  L 788.38 736.71
  L 788.41 736.58
  L 788.49 736.51
  L 791.65 734.72
  L 794.48 732.68
  L 796.99 730.40
  L 799.17 727.86
  L 799.17 727.86
  L 799.17 727.86
  L 799.17 727.86
  L 801.18 724.81
  L 802.80 721.45
  L 804.02 717.80
  L 804.86 713.85
  L 805.13 710.82
  L 805.18 706.44
  L 804.99 702.39
  L 804.51 699.09
  L 803.60 695.72
  L 802.38 692.61
  L 800.85 689.76
  L 798.99 687.17
  L 796.67 684.68
  L 793.98 682.49
  L 790.94 680.59
  L 787.54 678.99
  L 785.24 678.19
  L 782.25 677.41
  L 776.88 676.11
  Z"
/>
<path fill="#858782" d="
  M 669.03 676.63
  L 708.59 765.80
  L 707.92 765.06
  L 669.13 677.85
  L 669.11 677.81
  L 669.03 676.63
  Z"
/>
<path fill="#858782" d="
  M 647.69 676.82
  L 609.20 764.38
  L 610.17 761.19
  L 612.15 756.39
  L 646.95 678.16
  L 647.69 676.82
  Z"
/>
<path fill="#858782" d="
  M 306.19 683.83
  L 299.57 700.79
  L 299.53 700.88
  L 299.05 701.54
  L 298.35 701.97
  L 297.54 702.08
  L 296.74 701.87
  L 291.04 699.30
  L 285.06 697.23
  L 279.43 695.84
  L 273.94 695.09
  L 268.61 694.97
  L 263.42 695.48
  L 258.94 696.48
  L 254.89 697.95
  L 251.27 699.90
  L 248.07 702.33
  L 248.07 702.33
  L 246.18 704.20
  L 243.76 707.36
  L 241.88 710.99
  L 240.61 715.01
  L 239.95 719.42
  L 239.89 724.21
  L 240.18 727.38
  L 240.74 730.43
  L 241.57 733.36
  L 242.66 736.17
  L 242.66 736.17
  L 242.66 736.17
  L 243.84 738.54
  L 245.23 740.82
  L 243.04 737.65
  L 241.33 734.28
  L 241.33 734.28
  L 240.40 731.79
  L 239.72 729.20
  L 239.27 726.51
  L 239.05 723.72
  L 239.13 719.75
  L 239.63 716.01
  L 240.57 712.50
  L 241.94 709.21
  L 243.41 706.65
  L 245.15 704.32
  L 245.15 704.32
  L 246.82 702.55
  L 248.67 700.94
  L 250.70 699.48
  L 252.93 698.19
  L 255.67 696.90
  L 258.49 695.87
  L 258.49 695.87
  L 263.41 694.72
  L 268.55 694.29
  L 272.89 694.39
  L 277.15 694.79
  L 281.31 695.49
  L 285.39 696.51
  L 285.39 696.51
  L 285.39 696.51
  L 285.39 696.51
  L 291.43 698.63
  L 297.26 701.47
  L 298.10 701.56
  L 298.74 701.01
  L 298.74 701.01
  L 298.76 700.95
  L 304.82 685.81
  L 305.45 684.57
  L 306.19 683.83
  Z"
/>
<path fill="#858782" d="
  M 779.01 697.75
  L 773.82 696.36
  L 770.75 695.93
  L 759.14 696.04
  L 747.09 695.64
  L 759.09 695.52
  L 773.12 695.94
  L 774.84 696.12
  L 776.39 696.48
  L 777.78 697.02
  L 779.01 697.75
  Z"
/>
<path fill="#858782" d="
  M 783.05 706.21
  L 781.02 699.65
  L 781.98 700.93
  L 782.64 702.31
  L 782.64 702.31
  L 783.07 704.18
  L 783.05 706.21
  Z"
/>
<path fill="#858782" d="
  M 384.26 732.78
  L 382.83 728.59
  L 381.21 724.60
  L 377.81 716.57
  L 375.76 711.68
  L 373.64 707.37
  L 373.10 706.86
  L 372.27 707.11
  L 372.09 706.54
  L 372.13 706.05
  L 372.13 706.05
  L 372.70 705.38
  L 372.76 705.34
  L 373.40 705.30
  L 373.87 705.74
  L 384.94 732.03
  L 384.99 732.43
  L 384.76 732.78
  L 384.01 733.27
  L 384.26 732.78
  Z"
/>
<path fill="#858782" d="
  M 658.78 707.15
  L 658.01 707.40
  L 657.95 707.48
  L 656.72 709.61
  L 655.61 712.06
  L 651.51 721.86
  L 647.00 731.53
  L 657.65 705.84
  L 657.89 705.54
  L 658.26 705.42
  L 659.02 705.66
  L 659.02 705.66
  L 659.12 706.24
  L 658.78 707.15
  Z"
/>
<path fill="#858782" d="
  M 747.40 705.50
  L 747.98 720.71
  L 747.73 720.80
  L 747.47 720.77
  L 747.37 720.54
  L 747.22 718.69
  L 747.03 712.12
  L 747.40 705.50
  Z"
/>
<path fill="#858782" d="
  M 371.91 707.41
  L 371.65 709.00
  L 371.11 710.57
  L 362.12 731.31
  L 362.01 732.02
  L 362.23 732.88
  L 361.87 733.05
  L 361.65 733.10
  L 361.18 732.86
  L 361.13 732.33
  L 371.91 707.41
  Z"
/>
<path fill="#858782" d="
  M 667.93 732.87
  L 668.72 731.90
  L 668.95 730.95
  L 668.95 730.95
  L 668.57 729.98
  L 668.27 729.49
  L 668.19 729.32
  L 658.86 707.50
  L 659.27 707.50
  L 659.48 707.74
  L 664.35 718.37
  L 668.92 729.50
  L 669.38 730.34
  L 670.02 731.82
  L 670.01 732.38
  L 669.82 732.79
  L 669.53 733.03
  L 669.49 733.05
  L 668.80 733.15
  L 667.93 732.87
  Z"
/>
<path fill="#858782" d="
  M 777.75 718.72
  L 779.45 717.04
  L 780.88 715.18
  L 781.85 713.51
  L 782.64 711.72
  L 782.23 713.97
  L 781.32 715.87
  L 779.81 717.48
  L 777.75 718.72
  Z"
/>
<path fill="#858782" d="
  M 233.74 760.14
  L 238.26 762.71
  L 241.89 764.67
  L 245.90 766.34
  L 250.09 767.64
  L 254.26 768.52
  L 259.88 769.24
  L 265.45 769.60
  L 271.00 769.60
  L 276.50 769.24
  L 276.50 769.24
  L 276.50 769.24
  L 283.62 768.22
  L 290.67 766.58
  L 297.33 764.37
  L 303.66 761.52
  L 303.66 761.52
  L 303.81 761.44
  L 304.77 760.54
  L 305.13 759.28
  L 305.47 719.63
  L 306.01 737.57
  L 306.00 757.50
  L 305.69 759.62
  L 304.84 761.31
  L 304.84 761.31
  L 303.82 762.31
  L 302.49 763.07
  L 295.05 765.91
  L 287.58 768.04
  L 280.07 769.45
  L 272.53 770.16
  L 272.53 770.16
  L 272.53 770.16
  L 267.16 770.24
  L 261.77 769.95
  L 256.36 769.31
  L 250.93 768.31
  L 246.55 767.08
  L 242.22 765.31
  L 237.95 763.00
  L 233.74 760.14
  Z"
/>
<path fill="#858782" d="
  M 774.81 720.15
  L 768.31 720.75
  L 761.77 721.05
  L 755.18 721.05
  L 748.53 720.75
  L 749.77 720.11
  L 750.25 720.06
  L 762.52 720.00
  L 774.81 720.15
  Z"
/>
<path fill="#858782" d="
  M 283.92 720.15
  L 283.63 746.98
  L 283.50 747.43
  L 283.15 747.71
  L 279.51 748.90
  L 275.02 749.66
  L 270.06 750.01
  L 265.41 749.93
  L 261.05 749.42
  L 257.00 748.48
  L 255.18 747.83
  L 253.27 746.93
  L 249.23 744.37
  L 252.18 746.02
  L 254.83 747.27
  L 257.19 748.10
  L 259.25 748.52
  L 265.43 749.21
  L 268.53 749.39
  L 271.59 749.23
  L 271.68 749.22
  L 275.17 748.91
  L 279.42 748.39
  L 281.52 747.80
  L 282.45 747.11
  L 282.82 746.00
  L 283.10 720.69
  L 283.22 720.28
  L 283.54 720.01
  L 283.92 720.15
  Z"
/>
<path fill="#858782" d="
  M 475.63 749.66
  L 480.68 748.78
  L 482.70 748.42
  L 484.28 747.93
  L 485.83 747.18
  L 487.03 746.37
  L 487.94 745.47
  L 488.63 744.39
  L 489.10 742.48
  L 489.10 740.97
  L 488.90 739.62
  L 488.48 738.42
  L 487.87 737.36
  L 487.87 737.36
  L 487.87 737.36
  L 487.03 736.45
  L 486.13 735.82
  L 484.94 735.24
  L 481.63 734.28
  L 475.96 733.26
  L 466.72 731.86
  L 460.55 730.56
  L 453.49 728.31
  L 461.61 730.18
  L 466.43 731.11
  L 481.31 733.43
  L 483.90 734.11
  L 486.23 735.22
  L 486.23 735.22
  L 488.15 736.62
  L 488.68 737.17
  L 489.33 738.29
  L 489.68 739.65
  L 489.80 741.26
  L 489.68 742.73
  L 489.34 744.07
  L 488.78 745.27
  L 487.95 746.36
  L 486.89 747.31
  L 485.58 748.12
  L 484.03 748.78
  L 481.93 749.38
  L 479.81 749.72
  L 479.81 749.72
  L 479.81 749.72
  L 477.73 749.81
  L 475.63 749.66
  Z"
/>
<path fill="#858782" d="
  M 748.03 740.07
  L 748.08 765.97
  L 747.90 766.55
  L 747.40 766.90
  L 746.96 766.79
  L 747.09 765.00
  L 747.31 741.26
  L 747.40 740.14
  L 747.64 739.73
  L 747.64 739.73
  L 748.03 740.07
  Z"
/>
<path fill="#858782" d="
  M 761.99 740.46
  L 761.46 740.72
  L 760.95 740.28
  L 761.32 740.21
  L 761.69 740.21
  L 761.99 740.46
  Z"
/>
<path fill="#858782" d="
  M 800.49 756.41
  L 788.46 740.01
  L 800.49 756.41
  Z"
/>
<path fill="#858782" d="
  M 766.59 745.25
  L 764.39 742.64
  L 763.11 740.41
  L 764.78 742.30
  L 766.59 745.25
  Z"
/>
<path fill="#858782" d="
  M 447.27 745.24
  L 445.80 744.93
  L 445.35 744.78
  L 442.95 743.80
  L 440.65 742.54
  L 442.18 742.78
  L 443.79 743.31
  L 445.49 744.13
  L 447.27 745.24
  Z"
/>
<path fill="#858782" d="
  M 468.99 749.87
  L 465.46 749.71
  L 461.76 749.28
  L 457.89 748.59
  L 453.84 747.63
  L 450.52 746.59
  L 448.05 745.42
  L 455.64 747.61
  L 461.27 748.66
  L 465.91 749.25
  L 468.99 749.87
  Z"
/>
<path fill="#858782" d="
  M 805.23 767.42
  L 804.17 767.64
  L 803.77 767.67
  L 793.32 768.06
  L 784.80 767.99
  L 782.39 767.35
  L 781.49 766.75
  L 780.70 765.66
  L 776.81 759.92
  L 766.69 745.56
  L 767.26 745.89
  L 767.90 746.61
  L 781.83 766.42
  L 782.42 766.95
  L 783.18 767.15
  L 805.23 767.42
  Z"
/>
<path fill="#858782" d="
  M 225.49 751.84
  L 223.85 749.61
  L 223.02 747.78
  L 224.64 749.83
  L 225.49 751.84
  Z"
/>
<path fill="#858782" d="
  M 678.97 752.26
  L 678.12 751.50
  L 677.19 750.96
  L 678.09 750.76
  L 678.62 751.23
  L 678.97 752.26
  Z"
/>
<path fill="#858782" d="
  M 394.79 755.24
  L 394.00 754.11
  L 393.41 752.79
  L 393.05 751.34
  L 393.82 752.42
  L 393.82 752.42
  L 394.43 753.75
  L 394.79 755.24
  Z"
/>
<path fill="#858782" d="
  M 637.89 751.65
  L 632.03 766.46
  L 634.11 760.17
  L 635.88 755.86
  L 637.89 751.65
  Z"
/>
<path fill="#858782" d="
  M 679.69 754.46
  L 679.12 753.07
  L 679.07 752.69
  L 679.26 752.80
  L 679.26 752.80
  L 679.63 753.42
  L 679.69 754.46
  Z"
/>
<path fill="#858782" d="
  M 684.76 767.05
  L 680.06 755.16
  L 682.31 759.88
  L 684.09 764.74
  L 684.09 764.74
  L 684.76 767.05
  Z"
/>
<path fill="#858782" d="
  M 395.81 757.47
  L 395.73 757.41
  L 395.73 757.41
  L 395.39 756.94
  L 395.24 756.26
  L 395.32 756.27
  L 395.62 756.61
  L 395.81 757.47
  Z"
/>
<path fill="#858782" d="
  M 399.85 767.12
  L 398.59 764.90
  L 397.49 762.55
  L 396.57 760.07
  L 395.81 757.47
  L 399.85 767.12
  Z"
/>
<path fill="#858782" d="
  M 808.24 767.09
  L 802.20 758.76
  L 804.97 761.99
  L 807.33 765.47
  L 807.33 765.47
  L 808.24 767.09
  Z"
/>
<path fill="#858782" d="
  M 631.81 766.79
  L 631.41 767.20
  L 630.36 767.79
  L 629.00 768.02
  L 618.59 768.04
  L 608.15 767.36
  L 631.81 766.79
  Z"
/>
<path fill="#858782" d="
  M 413.35 767.33
  L 410.25 767.89
  L 407.16 768.00
  L 404.79 767.78
  L 402.43 767.30
  L 413.35 767.33
  Z"
/>
<path fill="#858782" d="
  M 696.38 767.30
  L 693.88 767.83
  L 691.40 767.95
  L 689.58 767.78
  L 687.76 767.39
  L 696.38 767.30
  Z"
/>
</svg>
